<!--?xml version="1.0" standalone="no"?-->
              <svg id="sw-js-blob-svg" viewBox="0 0 100 100" xmlns="http://www.w3.org/2000/svg" version="1.1">
                    <defs> 
                        <linearGradient id="sw-gradient" x1="0" x2="1" y1="1" y2="0">
                            <stop id="stop1" stop-color="rgba(21, 101, 192, 1)" offset="0%"></stop>
                            <stop id="stop2" stop-color="rgba(100, 181, 246, 1)" offset="100%"></stop>
                        </linearGradient>
                    </defs>
                <path fill="url(#sw-gradient)" d="M22.5,-30.6C29.4,-25.9,35.5,-19.7,39.5,-11.8C43.5,-3.9,45.4,5.7,43.3,14.7C41.3,23.6,35.2,31.8,27.3,35.5C19.4,39.3,9.7,38.5,0.1,38.4C-9.5,38.2,-19,38.7,-25.6,34.6C-32.2,30.4,-36.1,21.7,-37.7,13.1C-39.4,4.4,-39,-4,-36.4,-11.7C-33.7,-19.3,-28.8,-26.1,-22.4,-31C-15.9,-35.9,-8,-38.8,-0.1,-38.7C7.8,-38.6,15.5,-35.3,22.5,-30.6Z" width="100%" height="100%" transform="translate(50 50)" style="transition: all 0.3s ease 0s;" stroke-width="0"></path>
              </svg>